<?xml version="1.0" encoding="UTF-8"?>
<!DOCTYPE svg PUBLIC "-//W3C//DTD SVG 1.1//EN" "http://www.w3.org/Graphics/SVG/1.1/DTD/svg11.dtd">
<svg xmlns="http://www.w3.org/2000/svg" version="1.1" width="512px" height="512px" style="shape-rendering:geometricPrecision; text-rendering:geometricPrecision; image-rendering:optimizeQuality; fill-rule:evenodd; clip-rule:evenodd" xmlns:xlink="http://www.w3.org/1999/xlink">
<g><path style="opacity:0.998" fill="#fefffe" d="M 51.5,47.5 C 86.1683,47.3333 120.835,47.5 155.5,48C 156.416,48.3742 157.25,48.8742 158,49.5C 159.154,67.4122 159.654,85.4122 159.5,103.5C 175.833,157.167 157.167,175.833 103.5,159.5C 86.1667,159.333 68.8333,159.167 51.5,159C 50.5838,158.626 49.7504,158.126 49,157.5C 47.347,122.252 47.0136,86.9182 48,51.5C 48.6897,49.6498 49.8564,48.3164 51.5,47.5 Z"/></g>
<g><path style="opacity:0.998" fill="#fefffe" d="M 203.5,47.5 C 238.168,47.3333 272.835,47.5 307.5,48C 308.416,48.3742 309.25,48.8742 310,49.5C 311.154,67.4122 311.654,85.4122 311.5,103.5C 327.833,157.167 309.167,175.833 255.5,159.5C 238.167,159.333 220.833,159.167 203.5,159C 202.584,158.626 201.75,158.126 201,157.5C 199.347,122.252 199.014,86.9182 200,51.5C 200.69,49.6498 201.856,48.3164 203.5,47.5 Z"/></g>
<g><path style="opacity:0.998" fill="#fefffe" d="M 355.5,47.5 C 390.168,47.3333 424.835,47.5 459.5,48C 460.416,48.3742 461.25,48.8742 462,49.5C 463.154,67.4122 463.654,85.4122 463.5,103.5C 479.833,157.167 461.167,175.833 407.5,159.5C 390.167,159.333 372.833,159.167 355.5,159C 354.584,158.626 353.75,158.126 353,157.5C 351.347,122.252 351.014,86.9182 352,51.5C 352.69,49.6498 353.856,48.3164 355.5,47.5 Z"/></g>
<g><path style="opacity:0.998" fill="#fefffe" d="M 51.5,199.5 C 86.1683,199.333 120.835,199.5 155.5,200C 156.416,200.374 157.25,200.874 158,201.5C 159.154,219.412 159.654,237.412 159.5,255.5C 175.833,309.167 157.167,327.833 103.5,311.5C 86.1667,311.333 68.8333,311.167 51.5,311C 50.5838,310.626 49.7504,310.126 49,309.5C 47.347,274.252 47.0136,238.918 48,203.5C 48.6897,201.65 49.8564,200.316 51.5,199.5 Z"/></g>
<g><path style="opacity:0.998" fill="#fefffe" d="M 203.5,199.5 C 238.168,199.333 272.835,199.5 307.5,200C 308.416,200.374 309.25,200.874 310,201.5C 311.154,219.412 311.654,237.412 311.5,255.5C 327.833,309.167 309.167,327.833 255.5,311.5C 238.167,311.333 220.833,311.167 203.5,311C 202.584,310.626 201.75,310.126 201,309.5C 199.347,274.252 199.014,238.918 200,203.5C 200.69,201.65 201.856,200.316 203.5,199.5 Z"/></g>
<g><path style="opacity:0.998" fill="#fefffe" d="M 355.5,199.5 C 390.168,199.333 424.835,199.5 459.5,200C 460.416,200.374 461.25,200.874 462,201.5C 463.154,219.412 463.654,237.412 463.5,255.5C 479.833,309.167 461.167,327.833 407.5,311.5C 390.167,311.333 372.833,311.167 355.5,311C 354.584,310.626 353.75,310.126 353,309.5C 351.347,274.252 351.014,238.918 352,203.5C 352.69,201.65 353.856,200.316 355.5,199.5 Z"/></g>
<g><path style="opacity:0.998" fill="#fefffe" d="M 51.5,351.5 C 86.1683,351.333 120.835,351.5 155.5,352C 156.416,352.374 157.25,352.874 158,353.5C 159.154,371.412 159.654,389.412 159.5,407.5C 175.833,461.167 157.167,479.833 103.5,463.5C 86.1667,463.333 68.8333,463.167 51.5,463C 50.5838,462.626 49.7504,462.126 49,461.5C 47.347,426.252 47.0136,390.918 48,355.5C 48.6897,353.65 49.8564,352.316 51.5,351.5 Z"/></g>
<g><path style="opacity:0.998" fill="#fefffe" d="M 203.5,351.5 C 238.168,351.333 272.835,351.5 307.5,352C 308.416,352.374 309.25,352.874 310,353.5C 311.154,371.412 311.654,389.412 311.5,407.5C 327.833,461.167 309.167,479.833 255.5,463.5C 238.167,463.333 220.833,463.167 203.5,463C 202.584,462.626 201.75,462.126 201,461.5C 199.347,426.252 199.014,390.918 200,355.5C 200.69,353.65 201.856,352.316 203.5,351.5 Z"/></g>
<g><path style="opacity:0.998" fill="#fefffe" d="M 355.5,351.5 C 390.168,351.333 424.835,351.5 459.5,352C 460.416,352.374 461.25,352.874 462,353.5C 463.154,371.412 463.654,389.412 463.5,407.5C 479.833,461.167 461.167,479.833 407.5,463.5C 390.167,463.333 372.833,463.167 355.5,463C 354.584,462.626 353.75,462.126 353,461.5C 351.347,426.252 351.014,390.918 352,355.5C 352.69,353.65 353.856,352.316 355.5,351.5 Z"/></g>
</svg>
