<?xml version="1.0" encoding="UTF-8"?>
<!DOCTYPE svg PUBLIC "-//W3C//DTD SVG 1.1//EN" "http://www.w3.org/Graphics/SVG/1.1/DTD/svg11.dtd">
<svg xmlns="http://www.w3.org/2000/svg" version="1.1" width="512px" height="512px" style="shape-rendering:geometricPrecision; text-rendering:geometricPrecision; image-rendering:optimizeQuality; fill-rule:evenodd; clip-rule:evenodd" xmlns:xlink="http://www.w3.org/1999/xlink">
<g><path style="opacity:0.988" fill="#fefffe" d="M 240.5,31.5 C 290.158,27.5782 327.991,46.5782 354,88.5C 365.601,110.767 370.101,134.433 367.5,159.5C 391.502,159.333 415.502,159.5 439.5,160C 452,163.167 459.833,171 463,183.5C 463.667,262.5 463.667,341.5 463,420.5C 456.158,450.343 437.992,469.51 408.5,478C 357.703,479.155 306.87,479.655 256,479.5C 204.803,479.653 153.636,479.153 102.5,478C 72.5974,469.431 54.4307,449.931 48,419.5C 47.3333,340.833 47.3333,262.167 48,183.5C 51.1667,171 59,163.167 71.5,160C 95.4977,159.5 119.498,159.333 143.5,159.5C 139.277,109.447 158.277,71.2804 200.5,45C 213.31,38.5639 226.643,34.0639 240.5,31.5 Z M 254.5,63.5 C 291.621,65.7992 317.121,84.1325 331,118.5C 334.316,131.954 335.816,145.621 335.5,159.5C 282.167,159.5 228.833,159.5 175.5,159.5C 172.091,120.519 187.091,91.3525 220.5,72C 231.49,67.2525 242.823,64.4191 254.5,63.5 Z M 79.5,191.5 C 196.833,191.5 314.167,191.5 431.5,191.5C 431.667,263.834 431.5,336.167 431,408.5C 428.051,431.782 414.884,444.616 391.5,447C 300.5,447.667 209.5,447.667 118.5,447C 95.2,444.033 82.3667,430.867 80,407.5C 79.5,335.501 79.3333,263.501 79.5,191.5 Z"/></g>
<g><path style="opacity:0.965" fill="#fefffe" d="M 153.5,207.5 C 163.36,205.35 170.527,208.683 175,217.5C 175.185,230.572 176.185,243.572 178,256.5C 189.239,295.222 215.072,316.222 255.5,319.5C 290.033,317.334 314.533,300.668 329,269.5C 331.288,263.683 332.954,257.683 334,251.5C 334.969,240.185 335.636,228.852 336,217.5C 340.473,208.518 347.64,205.351 357.5,208C 362,209.833 365.167,213 367,217.5C 373.525,269.934 354.692,310.101 310.5,338C 280.944,352.899 250.277,355.565 218.5,346C 188.445,335.222 166.611,315.388 153,286.5C 143.927,264.356 140.927,241.356 144,217.5C 146.022,212.98 149.189,209.647 153.5,207.5 Z"/></g>
</svg>
