<?xml version="1.0" encoding="UTF-8"?>
<!DOCTYPE svg PUBLIC "-//W3C//DTD SVG 1.1//EN" "http://www.w3.org/Graphics/SVG/1.1/DTD/svg11.dtd">
<svg xmlns="http://www.w3.org/2000/svg" version="1.1" width="512px" height="512px" style="shape-rendering:geometricPrecision; text-rendering:geometricPrecision; image-rendering:optimizeQuality; fill-rule:evenodd; clip-rule:evenodd" xmlns:xlink="http://www.w3.org/1999/xlink">
<g><path style="opacity:0.961" fill="#fefffe" d="M 409.5,111.5 C 428.778,110.61 435.278,119.276 429,137.5C 353.167,224 277.333,310.5 201.5,397C 194.833,400.333 188.167,400.333 181.5,397C 148.333,363.833 115.167,330.667 82,297.5C 75.7062,279.133 82.2062,270.633 101.5,272C 102.833,272.667 104.167,273.333 105.5,274C 133.5,302 161.5,330 189.5,358C 190.167,358.667 190.833,358.667 191.5,358C 261,278.5 330.5,199 400,119.5C 402.772,116.217 405.939,113.55 409.5,111.5 Z"/></g>
</svg>
