<svg width="24" height="24" viewBox="0 0 24 24" fill="none" xmlns="http://www.w3.org/2000/svg">
<circle cx="12" cy="12" r="12" fill="white"/>
<circle cx="12" cy="12" r="11.5" stroke="black" stroke-opacity="0.1"/>
<path d="M11.233 14.5455H12.2557V14.4943C12.2727 13.4375 12.5455 12.9773 13.2955 12.5085C14.0455 12.0526 14.4886 11.3963 14.4886 10.4545C14.4886 9.125 13.517 8.15341 12.017 8.15341C10.6364 8.15341 9.54119 9.00568 9.47727 10.4545H10.5511C10.6151 9.44886 11.3182 9.03977 12.017 9.03977C12.8182 9.03977 13.4659 9.56818 13.4659 10.4034C13.4659 11.081 13.0781 11.5668 12.5795 11.8693C11.7443 12.3764 11.2457 12.8707 11.233 14.4943V14.5455ZM11.7784 17.0682C12.2003 17.0682 12.5455 16.723 12.5455 16.3011C12.5455 15.8793 12.2003 15.5341 11.7784 15.5341C11.3565 15.5341 11.0114 15.8793 11.0114 16.3011C11.0114 16.723 11.3565 17.0682 11.7784 17.0682Z" fill="black" fill-opacity="0.5"/>
</svg>
