<?xml version="1.0" encoding="UTF-8"?>
<!DOCTYPE svg PUBLIC "-//W3C//DTD SVG 1.1//EN" "http://www.w3.org/Graphics/SVG/1.1/DTD/svg11.dtd">
<svg xmlns="http://www.w3.org/2000/svg" version="1.1" width="512px" height="512px" style="shape-rendering:geometricPrecision; text-rendering:geometricPrecision; image-rendering:optimizeQuality; fill-rule:evenodd; clip-rule:evenodd" xmlns:xlink="http://www.w3.org/1999/xlink">
<g><path style="opacity:0.997" fill="#374255" d="M 32.5,119.5 C 181.167,119.333 329.834,119.5 478.5,120C 492.482,125.457 497.982,135.624 495,150.5C 492.167,158.667 486.667,164.167 478.5,167C 329.833,167.667 181.167,167.667 32.5,167C 18.5184,161.543 13.0184,151.376 16,136.5C 19.0191,128.316 24.5191,122.649 32.5,119.5 Z"/></g>
<g><path style="opacity:0.995" fill="#374255" d="M 112.5,231.5 C 207.834,231.333 303.167,231.5 398.5,232C 412.482,237.457 417.982,247.624 415,262.5C 412.167,270.667 406.667,276.167 398.5,279C 303.167,279.667 207.833,279.667 112.5,279C 98.5184,273.543 93.0184,263.376 96,248.5C 99.0191,240.316 104.519,234.649 112.5,231.5 Z"/></g>
<g><path style="opacity:0.987" fill="#374255" d="M 208.5,343.5 C 239.835,343.333 271.168,343.5 302.5,344C 316.482,349.457 321.982,359.624 319,374.5C 316.167,382.667 310.667,388.167 302.5,391C 271.167,391.667 239.833,391.667 208.5,391C 194.518,385.543 189.018,375.376 192,360.5C 195.019,352.316 200.519,346.649 208.5,343.5 Z"/></g>
</svg>
