<?xml version="1.0" encoding="UTF-8"?>
<!DOCTYPE svg PUBLIC "-//W3C//DTD SVG 1.1//EN" "http://www.w3.org/Graphics/SVG/1.1/DTD/svg11.dtd">
<svg xmlns="http://www.w3.org/2000/svg" version="1.1" width="512px" height="512px" style="shape-rendering:geometricPrecision; text-rendering:geometricPrecision; image-rendering:optimizeQuality; fill-rule:evenodd; clip-rule:evenodd" xmlns:xlink="http://www.w3.org/1999/xlink">
<g><path style="opacity:0.963" fill="#fefffe" d="M 143.5,63.5 C 176.323,60.3902 205.657,68.8902 231.5,89C 240.011,96.3444 248.011,104.178 255.5,112.5C 270.565,94.3044 288.899,80.4711 310.5,71C 366.349,52.8403 411.516,67.3403 446,114.5C 461.65,140.749 467.316,169.082 463,199.5C 459.358,234.085 448.358,266.085 430,295.5C 404.832,334.01 373.999,367.51 337.5,396C 317.701,411.732 297.367,426.732 276.5,441C 262.5,449.667 248.5,449.667 234.5,441C 192.775,413.343 154.275,381.51 119,345.5C 92.1664,316.632 71.8331,283.632 58,246.5C 48.0023,216.853 45.0023,186.52 49,155.5C 57.405,117.099 79.2384,89.2657 114.5,72C 124.064,68.3643 133.73,65.5309 143.5,63.5 Z M 157.5,95.5 C 184.022,97.1782 206.189,107.845 224,127.5C 231.778,136.89 238.945,146.724 245.5,157C 252.167,160.333 258.833,160.333 265.5,157C 273.976,143.184 283.976,130.517 295.5,119C 329.204,90.8701 364.204,88.8701 400.5,113C 425.192,135.4 435.025,163.233 430,196.5C 426.63,225.57 417.297,252.57 402,277.5C 385.801,302.047 366.968,324.547 345.5,345C 317.356,370.654 287.356,393.82 255.5,414.5C 215.62,388.475 178.787,358.475 145,324.5C 120.272,298.399 101.605,268.399 89,234.5C 81.5694,211.721 78.9027,188.387 81,164.5C 87.319,131.849 106.152,110.016 137.5,99C 144.234,97.3845 150.901,96.2178 157.5,95.5 Z"/></g>
</svg>
