<?xml version="1.0" encoding="UTF-8"?>
<!DOCTYPE svg PUBLIC "-//W3C//DTD SVG 1.1//EN" "http://www.w3.org/Graphics/SVG/1.1/DTD/svg11.dtd">
<svg xmlns="http://www.w3.org/2000/svg" version="1.1" width="512px" height="512px" style="shape-rendering:geometricPrecision; text-rendering:geometricPrecision; image-rendering:optimizeQuality; fill-rule:evenodd; clip-rule:evenodd" xmlns:xlink="http://www.w3.org/1999/xlink">
<g><path style="opacity:0.993" fill="#fe6d6c" d="M 143.5,63.5 C 187.637,59.7448 223.637,74.9115 251.5,109C 254.167,111 256.833,111 259.5,109C 297.429,64.9336 343.763,52.9336 398.5,73C 441.895,95.7701 463.561,131.77 463.5,181C 462.965,222.312 451.798,260.478 430,295.5C 412.176,322.674 391.343,347.508 367.5,370C 337.614,396.267 306.28,420.6 273.5,443C 261.5,449 249.5,449 237.5,443C 195.134,414.99 155.967,382.824 120,346.5C 102.466,327.096 87.133,306.096 74,283.5C 52.191,243.455 43.8576,200.788 49,155.5C 57.0119,117.828 78.1786,90.3275 112.5,73C 122.617,68.7269 132.951,65.5603 143.5,63.5 Z"/></g>
</svg>
