<svg width="21" height="18" viewBox="0 0 21 18" fill="none" xmlns="http://www.w3.org/2000/svg">
<path d="M18.757 2.17562C16.5388 -0.0419627 12.9303 -0.0419627 10.7127 2.17562L10.1976 2.69039L9.68282 2.17562C7.46524 -0.0422629 3.85642 -0.0422629 1.63884 2.17562C-0.533711 4.34817 -0.547819 7.7919 1.60613 10.1863C3.57067 12.3693 9.36465 17.0857 9.61049 17.2854C9.77737 17.421 9.97818 17.4871 10.1778 17.4871C10.1844 17.4871 10.191 17.4871 10.1973 17.4868C10.4038 17.4964 10.6118 17.4255 10.7841 17.2854C11.0299 17.0857 16.8245 12.3693 18.7897 10.186C20.9433 7.7919 20.9292 4.34817 18.757 2.17562ZM17.451 8.98144C15.9192 10.683 11.7089 14.1925 10.1973 15.4379C8.68569 14.1928 4.47625 10.6836 2.94484 8.98174C1.44224 7.31165 1.42813 4.93318 2.91212 3.44919C3.67002 2.69159 4.66535 2.31249 5.66068 2.31249C6.65601 2.31249 7.65134 2.69129 8.40925 3.44919L9.54145 4.5814C9.67622 4.71617 9.84611 4.79661 10.0244 4.82483C10.3138 4.88696 10.6277 4.80622 10.8528 4.5817L11.9856 3.44919C13.5018 1.93369 15.9679 1.93399 17.4831 3.44919C18.9671 4.93318 18.953 7.31165 17.451 8.98144Z" fill="#858FA4"/>
</svg>
