<?xml version="1.0" encoding="UTF-8"?>
<!DOCTYPE svg PUBLIC "-//W3C//DTD SVG 1.1//EN" "http://www.w3.org/Graphics/SVG/1.1/DTD/svg11.dtd">
<svg xmlns="http://www.w3.org/2000/svg" version="1.1" width="512px" height="512px" style="shape-rendering:geometricPrecision; text-rendering:geometricPrecision; image-rendering:optimizeQuality; fill-rule:evenodd; clip-rule:evenodd" xmlns:xlink="http://www.w3.org/1999/xlink">
<g><path style="opacity:0.968" fill="#b8c0ce" d="M 246.5,31.5 C 256.843,30.1038 266.51,31.9371 275.5,37C 295.015,56.0156 314.682,74.8489 334.5,93.5C 335.333,81.5139 335.833,69.5139 336,57.5C 337.833,53 341,49.8333 345.5,48C 365.5,47.3333 385.5,47.3333 405.5,48C 411.616,50.4511 415.116,54.9511 416,61.5C 416.333,98.5 416.667,135.5 417,172.5C 442.637,196.469 467.97,220.802 493,245.5C 499.294,263.867 492.794,272.367 473.5,271C 472.167,270.333 470.833,269.667 469.5,269C 399.642,202.564 329.975,135.897 260.5,69C 257.167,67 253.833,67 250.5,69C 181.136,136.031 111.47,202.698 41.5,269C 23.1328,275.294 14.6328,268.794 16,249.5C 16.6667,248.167 17.3333,246.833 18,245.5C 89.8634,175.969 162.03,106.802 234.5,38C 238.434,35.5361 242.434,33.3694 246.5,31.5 Z"/></g>
<g><path style="opacity:0.992" fill="#b8c0ce" d="M 251.5,98.5 C 254.978,98.1842 258.312,98.6842 261.5,100C 323.69,159.191 385.523,218.691 447,278.5C 448.654,335.109 448.988,391.775 448,448.5C 446.593,464.169 438.427,474.335 423.5,479C 386.833,479.667 350.167,479.667 313.5,479C 309,477.167 305.833,474 304,469.5C 303.667,422.167 303.333,374.833 303,327.5C 302.5,323 300,320.5 295.5,320C 268.833,319.333 242.167,319.333 215.5,320C 211,320.5 208.5,323 208,327.5C 207.667,374.833 207.333,422.167 207,469.5C 205.167,474 202,477.167 197.5,479C 160.833,479.667 124.167,479.667 87.5,479C 72.4372,474.934 64.2705,465.101 63,449.5C 62.3333,393.5 62.3333,337.5 63,281.5C 63.4709,279.754 64.1376,278.087 65,276.5C 127.062,216.935 189.229,157.602 251.5,98.5 Z"/></g>
</svg>
