<svg width="26" height="35" viewBox="0 0 26 35" fill="none" xmlns="http://www.w3.org/2000/svg">
<path d="M23.2668 15.3001H22.5336V10.9009C22.5336 10.7064 22.4563 10.5199 22.3188 10.3824C22.1813 10.2449 21.9948 10.1677 21.8004 10.1677H4.20347C4.02986 10.1705 3.86087 10.1116 3.72661 10.0015C3.59234 9.89144 3.5015 9.73726 3.47027 9.56645V9.3025C3.5015 9.1317 3.59234 8.97752 3.72661 8.86742C3.86087 8.75732 4.02986 8.69844 4.20347 8.70127H21.4924C21.6869 8.70127 21.8734 8.62402 22.0109 8.48652C22.1484 8.34902 22.2256 8.16253 22.2256 7.96807C22.2256 7.77361 22.1484 7.58712 22.0109 7.44961C21.8734 7.31211 21.6869 7.23486 21.4924 7.23486H4.20347C3.6201 7.23486 3.06062 7.46661 2.64811 7.87912C2.2356 8.29162 2.00386 8.8511 2.00386 9.43448C1.99871 9.52239 1.99871 9.61052 2.00386 9.69843V24.7805C2.00674 25.1752 2.08735 25.5656 2.24108 25.9292C2.39482 26.2928 2.61868 26.6226 2.89987 26.8997C3.18106 27.1768 3.51408 27.3958 3.87991 27.5442C4.24574 27.6926 4.63722 27.7675 5.032 27.7646H21.8004C21.9948 27.7646 22.1813 27.6873 22.3188 27.5498C22.4563 27.4123 22.5336 27.2259 22.5336 27.0314V22.6322H23.2668C23.4613 22.6322 23.6477 22.5549 23.7852 22.4174C23.9228 22.2799 24 22.0934 24 21.899V16.0333C24 15.8389 23.9228 15.6524 23.7852 15.5149C23.6477 15.3774 23.4613 15.3001 23.2668 15.3001ZM21.0672 26.2982H5.032C4.62419 26.3021 4.23132 26.1449 3.93885 25.8607C3.64639 25.5764 3.47798 25.1882 3.47027 24.7805V11.5461C3.70827 11.6151 3.95592 11.6448 4.20347 11.6341H21.0672V15.3001H15.9347C14.9625 15.3001 14.03 15.6864 13.3425 16.3739C12.655 17.0614 12.2687 17.9938 12.2687 18.9661C12.2687 19.9384 12.655 20.8709 13.3425 21.5584C14.03 22.2459 14.9625 22.6322 15.9347 22.6322H21.0672V26.2982ZM22.5336 21.1658H15.9347C15.3514 21.1658 14.7919 20.934 14.3794 20.5215C13.9669 20.109 13.7351 19.5495 13.7351 18.9661C13.7351 18.3828 13.9669 17.8233 14.3794 17.4108C14.7919 16.9983 15.3514 16.7665 15.9347 16.7665H22.5336V21.1658Z" fill="#384255"/>
<path d="M16.676 20.0663C17.2834 20.0663 17.7758 19.5739 17.7758 18.9665C17.7758 18.3591 17.2834 17.8667 16.676 17.8667C16.0686 17.8667 15.5762 18.3591 15.5762 18.9665C15.5762 19.5739 16.0686 20.0663 16.676 20.0663Z" fill="#384255"/>
</svg>
