<svg width="26" height="31" viewBox="0 0 26 31" fill="none" xmlns="http://www.w3.org/2000/svg">
<path d="M19.6347 17.4702C17.8276 17.4702 16.3574 18.9404 16.3574 20.7475C16.3574 22.5546 17.8276 24.0248 19.6347 24.0248C21.4421 24.0248 22.912 22.5546 22.912 20.7475C22.912 18.9404 21.4418 17.4702 19.6347 17.4702ZM19.6347 22.3861C18.731 22.3861 17.9961 21.6512 17.9961 20.7475C17.9961 19.8438 18.731 19.1089 19.6347 19.1089C20.5384 19.1089 21.2733 19.8438 21.2733 20.7475C21.2733 21.6512 20.5384 22.3861 19.6347 22.3861Z" fill="#384255"/>
<path d="M8.43743 17.4702C6.6303 17.4702 5.16016 18.9404 5.16016 20.7475C5.16016 22.5546 6.6303 24.0248 8.43743 24.0248C10.2446 24.0248 11.7147 22.5546 11.7147 20.7475C11.7147 18.9404 10.2446 17.4702 8.43743 17.4702ZM8.43743 22.3861C7.53374 22.3861 6.79879 21.6512 6.79879 20.7475C6.79879 19.8438 7.53374 19.1089 8.43743 19.1089C9.34087 19.1089 10.0761 19.8438 10.0761 20.7475C10.0761 21.6512 9.34112 22.3861 8.43743 22.3861Z" fill="#384255"/>
<path d="M21.8442 8.08986C21.7049 7.8132 21.4217 7.63867 21.1119 7.63867H16.7969V9.27731H20.6067L22.8377 13.7147L24.3021 12.9784L21.8442 8.08986Z" fill="#384255"/>
<path d="M17.178 19.9561H10.9785V21.5947H17.178V19.9561Z" fill="#384255"/>
<path d="M5.98181 19.9561H3.14156C2.689 19.9561 2.32227 20.3228 2.32227 20.7753C2.32227 21.2279 2.68905 21.5946 3.14156 21.5946H5.98186C6.43442 21.5946 6.80116 21.2279 6.80116 20.7753C6.80116 20.3228 6.43437 19.9561 5.98181 19.9561Z" fill="#384255"/>
<path d="M25.8284 14.9469L24.2168 12.8713C24.062 12.6714 23.823 12.5545 23.5698 12.5545H17.6161V6.81929C17.6161 6.36674 17.2493 6 16.7968 6H3.14156C2.689 6 2.32227 6.36679 2.32227 6.81929C2.32227 7.2718 2.68905 7.63859 3.14156 7.63859H15.9775V13.3738C15.9775 13.8263 16.3443 14.1931 16.7968 14.1931H23.1686L24.3618 15.7301V19.9556H22.095C21.6425 19.9556 21.2757 20.3224 21.2757 20.7749C21.2757 21.2275 21.6425 21.5942 22.095 21.5942H25.1811C25.6337 21.5942 26.0004 21.2274 26.0005 20.7749V15.4494C26.0005 15.2675 25.9398 15.0906 25.8284 14.9469Z" fill="#384255"/>
<path d="M5.92801 15.8047H2.15914C1.70658 15.8047 1.33984 16.1715 1.33984 16.624C1.33984 17.0765 1.70663 17.4433 2.15914 17.4433H5.92796C6.38052 17.4433 6.74726 17.0765 6.74726 16.624C6.74731 16.1715 6.38052 15.8047 5.92801 15.8047Z" fill="#384255"/>
<path d="M7.8108 12.582H0.819293C0.366788 12.582 0 12.9488 0 13.4014C0 13.8539 0.366788 14.2207 0.819293 14.2207H7.8108C8.26336 14.2207 8.6301 13.8539 8.6301 13.4014C8.6301 12.9489 8.26336 12.582 7.8108 12.582Z" fill="#384255"/>
<path d="M9.15065 9.35938H2.15914C1.70658 9.35938 1.33984 9.72616 1.33984 10.1787C1.33984 10.6312 1.70663 10.998 2.15914 10.998H9.15065C9.6032 10.998 9.96994 10.6312 9.96994 10.1787C9.96999 9.72616 9.6032 9.35938 9.15065 9.35938Z" fill="#384255"/>
</svg>
