<svg width="26" height="35" viewBox="0 0 26 35" fill="none" xmlns="http://www.w3.org/2000/svg">
<path d="M18.9643 19.6483L16.3352 17.0236L20.491 12.8679L20.9674 13.3444C21.3001 13.677 21.8628 13.5746 22.0573 13.1467L24.4397 7.90553C24.5559 7.64983 24.5014 7.34885 24.3027 7.15021L23.3497 6.19737C23.1511 5.99877 22.8501 5.94419 22.5944 6.06041L17.3533 8.44275C16.9255 8.63721 16.8232 9.20027 17.1556 9.53264L17.6321 10.0091L13.4763 14.1649L10.8517 11.5358C11.1199 10.0275 10.6364 8.46144 9.54381 7.36876C8.14269 5.96764 5.99049 5.60198 4.1884 6.45882C3.99065 6.55284 3.8509 6.73706 3.81371 6.95282C3.77647 7.16858 3.84645 7.38897 4.00125 7.54382L5.54297 9.07727V10.043H4.58173L3.04833 8.49674C2.89353 8.34194 2.67314 8.27195 2.45733 8.30919C2.24157 8.34639 2.05735 8.48614 1.96328 8.68389C0.951956 10.8109 1.64029 13.3147 3.59992 14.6373C4.60217 15.3137 5.83748 15.5656 7.04283 15.3498L8.11296 16.4244C7.64132 16.4558 7.17867 16.6508 6.81898 17.0105C6.19457 17.6349 6.06541 18.5634 6.42362 19.3117L2.09257 23.6442C1.30253 24.4342 1.30244 25.7129 2.09257 26.503L3.99842 28.4089C4.78658 29.197 6.06905 29.1971 6.85725 28.4089L11.1892 24.0755C11.9443 24.4353 12.8707 24.2999 13.4896 23.681C13.8493 23.3213 14.0442 22.8587 14.0756 22.387L15.1502 23.4572C14.9344 24.6624 15.1863 25.8979 15.8627 26.9C17.1857 28.8604 19.6897 29.5477 21.8161 28.5367C22.0139 28.4427 22.1536 28.2585 22.1908 28.0427C22.228 27.8269 22.1581 27.6065 22.0033 27.4517L20.457 25.9183V25.0019H21.4227L22.9562 26.4987C23.111 26.6535 23.3314 26.7235 23.5472 26.6863C23.7629 26.6491 23.9472 26.5093 24.0412 26.3116C24.8981 24.5095 24.5324 22.3573 23.1313 20.9561C22.0387 19.8635 20.4727 19.3801 18.9643 19.6483ZM22.7269 7.48048L23.0195 7.77305L21.2328 11.7039C21.1706 11.6417 18.9426 9.41369 18.7961 9.26724L22.7269 7.48048ZM7.73485 14.136C7.56509 13.9662 7.31784 13.8995 7.08568 13.9611C6.15126 14.2089 5.12996 14.0441 4.35389 13.5202C3.24347 12.7708 2.70279 11.4928 2.88414 10.2385L3.82615 11.1483C3.95256 11.2747 4.12394 11.3457 4.30264 11.3457H6.2168C6.58893 11.3457 6.89063 11.044 6.89063 10.6719V8.79817C6.89063 8.61947 6.81961 8.44805 6.69324 8.32168L5.74445 7.38115C6.77419 7.23426 7.8361 7.56691 8.59088 8.32173C9.43887 9.16972 9.77313 10.4172 9.46322 11.5774C9.40113 11.8098 9.46766 12.0576 9.63774 12.2277L12.5234 15.1179L11.979 15.6622C11.2322 15.3047 10.3035 15.4318 9.67781 16.0576L9.66492 16.0705L7.73485 14.136ZM5.90433 27.4559C5.64158 27.7187 5.2141 27.7187 4.95135 27.4559L3.0455 25.55C2.78216 25.2867 2.78212 24.8605 3.0455 24.5971L7.29547 20.3457C7.66405 20.7143 9.8407 22.891 10.1543 23.2046L5.90433 27.4559ZM12.5366 22.7281C12.2738 22.9908 11.8464 22.9908 11.5836 22.7281L7.77186 18.9163C7.50862 18.653 7.50858 18.2268 7.77191 17.9634C8.03528 17.7001 8.46146 17.7 8.72484 17.9634L12.5366 21.7752C12.7993 22.0379 12.7993 22.4654 12.5366 22.7281ZM13.4895 19.8693L13.0131 20.3457L10.1543 17.4869L10.6307 17.0104C10.8941 16.7471 11.3203 16.7471 11.5837 17.0105L13.4895 18.9163C13.7522 19.179 13.7522 19.6066 13.4895 19.8693ZM13.966 17.487L13.0131 16.534L18.585 10.9621L19.5379 11.915L13.966 17.487ZM23.1189 24.7555L22.1784 23.815C22.052 23.6886 21.8806 23.6093 21.7019 23.6093H20.0795C20.0793 23.6093 20.0791 23.6093 20.0788 23.6093H19.7961C19.4238 23.6094 19.1094 23.9111 19.1094 24.2832V24.5741C19.1094 24.5744 19.1094 24.5746 19.1094 24.5749V26.1974C19.1094 26.3761 19.1804 26.5474 19.3068 26.6738L20.2616 27.6159C19.0073 27.7972 17.7292 27.2565 16.9798 26.1461C16.4559 25.37 16.2912 24.3488 16.539 23.4143C16.6005 23.1822 16.5339 22.9349 16.3641 22.7651L14.4296 20.8351L14.4424 20.8222C15.0636 20.2011 15.1948 19.2731 14.837 18.5218L15.3822 17.9766L18.2724 20.8623C18.4424 21.0323 18.6903 21.0989 18.9227 21.0368C20.083 20.7269 21.3304 21.0612 22.1784 21.9091C22.9331 22.6639 23.2658 23.7258 23.1189 24.7555Z" fill="#384255"/>
</svg>
