<svg width="24" height="25" viewBox="0 0 24 25" fill="none" xmlns="http://www.w3.org/2000/svg">
<path d="M11.9972 8.4597C9.97738 8.4597 8.32902 10.1081 8.32902 12.1279C8.32902 14.1478 9.97738 15.7962 11.9972 15.7962C14.0171 15.7962 15.6655 14.1478 15.6655 12.1279C15.6655 10.1081 14.0171 8.4597 11.9972 8.4597ZM22.9992 12.1279C22.9992 10.6089 23.0129 9.10364 22.9276 7.58736C22.8423 5.82617 22.4406 4.26312 21.1527 2.97525C19.8621 1.68462 18.3018 1.2856 16.5406 1.2003C15.0215 1.11499 13.5163 1.12875 12 1.12875C10.481 1.12875 8.97571 1.11499 7.45943 1.2003C5.69824 1.2856 4.13519 1.68738 2.84732 2.97525C1.55669 4.26587 1.15767 5.82617 1.07237 7.58736C0.987059 9.10639 1.00082 10.6117 1.00082 12.1279C1.00082 13.6442 0.987059 15.1522 1.07237 16.6685C1.15767 18.4297 1.55945 19.9927 2.84732 21.2806C4.13794 22.5712 5.69824 22.9703 7.45943 23.0556C8.97846 23.1409 10.4837 23.1271 12 23.1271C13.519 23.1271 15.0243 23.1409 16.5406 23.0556C18.3018 22.9703 19.8648 22.5685 21.1527 21.2806C22.4433 19.99 22.8423 18.4297 22.9276 16.6685C23.0157 15.1522 22.9992 13.647 22.9992 12.1279ZM11.9972 17.772C8.87389 17.772 6.35318 15.2513 6.35318 12.1279C6.35318 9.00457 8.87389 6.48387 11.9972 6.48387C15.1206 6.48387 17.6413 9.00457 17.6413 12.1279C17.6413 15.2513 15.1206 17.772 11.9972 17.772ZM17.8725 7.57085C17.1432 7.57085 16.5543 6.98195 16.5543 6.25271C16.5543 5.52347 17.1432 4.93457 17.8725 4.93457C18.6017 4.93457 19.1906 5.52347 19.1906 6.25271C19.1908 6.42587 19.1569 6.59738 19.0907 6.7574C19.0245 6.91742 18.9275 7.06282 18.805 7.18526C18.6826 7.3077 18.5372 7.40479 18.3772 7.47096C18.2171 7.53712 18.0456 7.57107 17.8725 7.57085Z" fill="#909CB5"/>
</svg>
