<?xml version="1.0" standalone="no"?>
<!DOCTYPE svg PUBLIC "-//W3C//DTD SVG 20010904//EN"
 "http://www.w3.org/TR/2001/REC-SVG-20010904/DTD/svg10.dtd">
<svg version="1.0" xmlns="http://www.w3.org/2000/svg"
 width="1046.000000pt" height="114.000000pt" viewBox="0 0 1046.000000 114.000000"
 preserveAspectRatio="xMidYMid meet">

<g transform="translate(0.000000,114.000000) scale(0.100000,-0.100000)"
fill="#000000" stroke="none">
<path d="M0 570 l0 -570 5230 0 5230 0 0 570 0 570 -5230 0 -5230 0 0 -570z
m2634 293 c77 -139 143 -253 146 -253 3 0 21 28 40 63 l33 63 -101 185 c-56
102 -102 189 -102 192 0 4 28 7 63 7 l62 0 140 -250 c76 -137 142 -250 146
-250 3 0 68 113 144 250 l137 250 64 0 c35 0 64 -3 64 -7 0 -5 -85 -161 -189
-348 l-188 -340 -34 0 c-32 0 -36 4 -85 93 l-51 93 -20 -33 c-11 -18 -36 -61
-54 -96 -33 -61 -35 -62 -72 -60 l-39 3 -140 255 c-77 140 -162 297 -190 348
l-50 93 68 -3 67 -3 141 -252z m1585 235 c-7 -13 -23 -40 -36 -60 l-23 -38
-257 -2 -257 -3 -128 -230 -127 -230 253 -5 253 -5 -29 -52 -30 -53 -319 0
c-175 0 -319 2 -319 5 0 3 86 161 191 350 l191 345 324 0 325 0 -12 -22z m247
-7 c-8 -15 -81 -147 -161 -291 -80 -145 -145 -265 -145 -266 0 -2 110 -5 244
-6 l243 -3 -29 -52 -30 -53 -309 0 c-170 0 -309 3 -309 7 0 3 15 34 34 67 18
34 97 178 176 321 78 143 149 270 157 283 12 19 22 22 78 22 l66 0 -15 -29z
m731 -13 c-55 -96 -288 -518 -293 -532 -5 -14 23 -16 239 -18 l245 -3 -31 -53
-32 -52 -312 0 -313 0 35 63 c19 34 106 191 192 349 l158 288 68 0 69 0 -25
-42z m-4377 -485 c157 -284 286 -523 288 -530 3 -10 -44 -13 -235 -13 l-239 0
-252 458 c-139 251 -270 490 -292 530 l-41 72 243 0 243 0 285 -517z m573 -7
c158 -287 287 -526 287 -529 0 -4 -107 -7 -239 -7 l-238 0 -288 523 c-158 287
-290 525 -292 530 -2 4 105 7 239 7 l243 -1 288 -523z m2656 232 c0 -7 -13
-33 -28 -58 l-27 -45 -212 -3 -212 -2 30 60 30 60 210 0 c162 0 210 -3 209
-12z m-1504 -603 c34 -33 34 -93 2 -131 -20 -23 -34 -28 -85 -32 l-62 -4 0 96
0 96 60 0 c51 0 65 -4 85 -25z m243 -67 c-2 -62 -7 -93 -15 -96 -10 -3 -13 20
-13 92 0 80 3 96 15 96 13 0 15 -15 13 -92z m362 77 c0 -11 -16 -15 -67 -17
-55 -2 -68 -6 -71 -20 -3 -16 5 -18 56 -18 69 0 96 -20 90 -66 -4 -38 -38 -54
-115 -54 -56 0 -63 2 -63 20 0 18 7 20 76 20 72 0 75 1 72 23 -3 20 -10 23
-71 27 -85 6 -106 29 -71 78 13 19 24 22 90 22 58 0 74 -3 74 -15z m340 0 c0
-10 -10 -15 -30 -15 l-29 0 -3 -77 c-2 -50 -7 -78 -15 -81 -10 -3 -13 17 -13
77 l0 81 -35 0 c-24 0 -35 5 -35 15 0 12 16 15 80 15 64 0 80 -3 80 -15z m350
-5 c25 -25 26 -60 0 -92 -19 -25 -19 -26 0 -43 25 -23 25 -35 2 -35 -10 0 -31
14 -47 30 -19 19 -39 30 -57 30 -18 0 -28 5 -28 15 0 11 12 15 49 15 55 0 82
20 64 48 -8 13 -25 17 -69 17 l-59 0 -3 -78 c-2 -56 -6 -77 -15 -74 -8 2 -13
35 -15 95 l-3 92 81 0 c67 0 83 -3 100 -20z m240 -76 c0 -72 -3 -95 -12 -92
-9 3 -14 34 -16 96 -2 77 0 92 13 92 12 0 15 -16 15 -96z m364 81 c10 -11 14
-34 13 -82 -2 -61 -4 -69 -27 -80 -14 -7 -53 -13 -87 -13 l-63 0 0 95 0 95 74
0 c53 0 79 -4 90 -15z m236 -41 c0 -78 11 -94 65 -94 54 0 65 16 65 94 0 43 3
56 15 56 12 0 15 -13 15 -60 0 -32 -5 -70 -11 -84 -26 -56 -142 -56 -167 -1
-7 14 -12 53 -12 85 0 47 3 60 15 60 12 0 15 -13 15 -56z m500 41 c0 -10 -11
-15 -35 -15 l-35 0 0 -81 c0 -60 -3 -80 -12 -77 -9 3 -14 31 -16 81 l-3 77
-29 0 c-20 0 -30 5 -30 15 0 12 16 15 80 15 64 0 80 -3 80 -15z m208 -77 c-2
-62 -7 -93 -15 -96 -10 -3 -13 20 -13 92 0 80 3 96 15 96 13 0 15 -15 13 -92z
m376 71 c21 -17 26 -29 26 -68 0 -33 -6 -54 -20 -68 -41 -44 -134 -41 -171 5
-28 36 -22 107 12 133 34 27 118 25 153 -2z m290 -41 l55 -63 1 63 c0 48 3 62
15 62 12 0 15 -17 15 -89 0 -50 -4 -92 -9 -95 -5 -3 -33 22 -63 56 l-53 62 -5
-59 c-3 -34 -10 -60 -17 -63 -10 -3 -13 20 -13 92 0 53 4 96 9 96 5 0 34 -28
65 -62z m674 46 c28 -20 29 -70 2 -99 l-20 -22 20 -18 c11 -10 20 -22 20 -27
0 -18 -32 -7 -62 22 -19 19 -41 30 -59 30 -19 0 -29 5 -29 15 0 11 12 15 44
15 56 0 76 8 76 29 0 29 -22 41 -77 41 l-52 0 -3 -77 c-2 -50 -7 -78 -15 -81
-10 -3 -13 20 -13 92 l0 96 73 0 c49 0 80 -5 95 -16z m352 1 c0 -12 -13 -15
-55 -15 l-55 0 0 -60 0 -60 55 0 c48 0 55 -2 55 -20 0 -18 -7 -20 -70 -20
l-70 0 0 95 0 95 70 0 c56 0 70 -3 70 -15z m340 0 c0 -10 -10 -15 -30 -15
l-29 0 -3 -77 c-2 -50 -7 -78 -15 -81 -10 -3 -13 17 -13 77 l0 81 -35 0 c-24
0 -35 5 -35 15 0 12 16 15 80 15 64 0 80 -3 80 -15z m342 -76 c27 -46 48 -87
48 -91 0 -19 -31 -5 -50 22 -17 23 -29 30 -55 30 -26 0 -33 3 -29 15 4 8 17
15 30 15 22 0 23 2 12 20 -7 11 -15 20 -18 20 -3 0 -20 -27 -39 -61 -31 -56
-54 -79 -67 -66 -5 5 67 146 89 175 17 22 30 8 79 -79z m256 -1 c-2 -62 -7
-93 -15 -96 -10 -3 -13 20 -13 92 0 80 3 96 15 96 13 0 15 -15 13 -92z m212
17 l0 -74 58 -3 c43 -2 57 -7 57 -18 0 -12 -14 -15 -70 -15 l-70 0 -3 93 c-2
77 0 92 13 92 12 0 15 -14 15 -75z m690 60 c0 -11 -12 -15 -52 -15 -62 0 -88
-19 -88 -65 0 -44 16 -55 82 -55 52 0 58 -2 58 -21 0 -20 -4 -21 -60 -17 -79
6 -110 32 -110 95 0 67 31 93 110 93 47 0 60 -3 60 -15z m210 -60 l0 -74 58
-3 c43 -2 57 -7 57 -18 0 -12 -16 -16 -72 -18 l-73 -3 0 96 c0 78 3 95 15 95
12 0 15 -15 15 -75z m320 26 c0 -27 4 -61 10 -75 8 -22 16 -26 53 -26 24 0 48
5 55 12 7 7 12 39 12 75 0 49 3 63 15 63 24 0 21 -130 -3 -161 -27 -32 -112
-34 -143 -2 -29 29 -42 163 -15 163 13 0 16 -10 16 -49z m520 29 c22 -22 25
-37 10 -60 -5 -9 -5 -19 2 -27 5 -7 7 -24 4 -37 -8 -31 -60 -49 -131 -44 l-50
3 -3 93 -3 92 76 0 c62 0 79 -4 95 -20z m370 5 c0 -11 -16 -15 -67 -17 -55 -2
-68 -6 -71 -20 -3 -16 5 -18 57 -18 68 0 91 -15 91 -60 0 -43 -32 -60 -112
-60 -61 0 -68 2 -68 20 0 18 7 20 74 20 77 0 97 10 76 35 -8 10 -32 15 -71 15
-51 0 -61 3 -75 25 -15 23 -15 27 0 50 15 23 23 25 91 25 59 0 75 -3 75 -15z
m-3265 -75 c0 -11 -13 -16 -47 -18 -43 -3 -48 -1 -48 18 0 19 5 21 48 18 34
-2 47 -7 47 -18z m-715 -80 c0 -11 -4 -20 -10 -20 -5 0 -10 9 -10 20 0 11 5
20 10 20 6 0 10 -9 10 -20z m2190 0 c0 -11 -4 -20 -10 -20 -5 0 -10 9 -10 20
0 11 5 20 10 20 6 0 10 -9 10 -20z"/>
<path d="M2430 150 l0 -60 43 0 c51 0 67 13 67 55 0 41 -27 65 -73 65 l-37 0
0 -60z"/>
<path d="M4310 150 l0 -60 61 0 c52 0 60 2 57 18 -2 13 -15 18 -56 20 -36 2
-52 7 -52 17 0 10 16 15 53 17 44 3 52 6 52 23 0 17 -8 20 -57 23 l-58 3 0
-61z"/>
<path d="M5632 194 c-26 -18 -30 -65 -6 -88 19 -19 104 -22 122 -4 18 18 14
73 -6 91 -23 21 -81 22 -110 1z"/>
<path d="M9830 150 l0 -61 63 3 c47 2 62 7 62 18 0 11 -14 16 -52 18 -38 2
-53 7 -53 18 0 10 12 14 39 14 48 0 71 8 71 25 0 18 -23 25 -81 25 l-49 0 0
-60z"/>
</g>
</svg>
