<?xml version="1.0" encoding="UTF-8"?>
<!DOCTYPE svg PUBLIC "-//W3C//DTD SVG 1.1//EN" "http://www.w3.org/Graphics/SVG/1.1/DTD/svg11.dtd">
<svg xmlns="http://www.w3.org/2000/svg" version="1.1" width="512px" height="512px" style="shape-rendering:geometricPrecision; text-rendering:geometricPrecision; image-rendering:optimizeQuality; fill-rule:evenodd; clip-rule:evenodd" xmlns:xlink="http://www.w3.org/1999/xlink">
<g><path style="opacity:0.976" fill="#8f9cb4" d="M 146.5,31.5 C 221.527,31.0215 296.527,31.5215 371.5,33C 432.668,46.8347 468.501,84.6681 479,146.5C 479.667,219.167 479.667,291.833 479,364.5C 470.79,416.116 442.623,451.95 394.5,472C 384.771,475.479 374.771,477.813 364.5,479C 291.833,479.667 219.167,479.667 146.5,479C 94.8835,470.79 59.0502,442.623 39,394.5C 35.6498,385.083 33.3165,375.417 32,365.5C 31.3333,292.167 31.3333,218.833 32,145.5C 44.1369,81.1961 82.3036,43.1961 146.5,31.5 Z M 151.5,69.5 C 220.834,69.3333 290.167,69.5 359.5,70C 405.333,78.5 432.5,105.667 441,151.5C 441.667,220.833 441.667,290.167 441,359.5C 432.5,405.333 405.333,432.5 359.5,441C 290.167,441.667 220.833,441.667 151.5,441C 105.667,432.5 78.5,405.333 70,359.5C 69.0194,288.136 69.3527,216.803 71,145.5C 81.5477,102.783 108.381,77.4492 151.5,69.5 Z M 245.5,181.5 C 284.587,179.446 311.42,196.446 326,232.5C 335.338,271.64 322.838,301.473 288.5,322C 253.78,336.276 223.613,329.776 198,302.5C 176,271.167 176,239.833 198,208.5C 210.902,194.138 226.736,185.138 245.5,181.5 Z"/></g>
<g><path style="opacity:0.956" fill="#8f9cb4" d="M 372.5,105.5 C 389.781,104.966 400.614,112.966 405,129.5C 405.148,152.685 393.648,163.518 370.5,162C 353.573,156.657 346.407,145.157 349,127.5C 352.544,115.453 360.377,108.119 372.5,105.5 Z"/></g>
<g><path style="opacity:0.97" fill="#8f9cb4" d="M 240.5,143.5 C 290.158,139.578 327.991,158.578 354,200.5C 368.496,228.953 371.496,258.62 363,289.5C 347.088,333.074 316.254,358.908 270.5,367C 220.821,371.41 182.988,352.577 157,310.5C 142.504,282.047 139.504,252.38 148,221.5C 164.072,177.923 194.906,151.923 240.5,143.5 Z M 245.5,181.5 C 226.736,185.138 210.902,194.138 198,208.5C 176,239.833 176,271.167 198,302.5C 223.613,329.776 253.78,336.276 288.5,322C 322.838,301.473 335.338,271.64 326,232.5C 311.42,196.446 284.587,179.446 245.5,181.5 Z"/></g>
</svg>
