<?xml version="1.0" encoding="UTF-8"?>
<!DOCTYPE svg PUBLIC "-//W3C//DTD SVG 1.1//EN" "http://www.w3.org/Graphics/SVG/1.1/DTD/svg11.dtd">
<svg xmlns="http://www.w3.org/2000/svg" version="1.1" width="512px" height="512px" style="shape-rendering:geometricPrecision; text-rendering:geometricPrecision; image-rendering:optimizeQuality; fill-rule:evenodd; clip-rule:evenodd" xmlns:xlink="http://www.w3.org/1999/xlink">
<g><path style="opacity:0.994" fill="#8f9cb4" d="M 511.5,195.5 C 511.5,234.5 511.5,273.5 511.5,312.5C 510.245,332.003 509.078,351.67 508,371.5C 503.864,406.952 485.031,430.452 451.5,442C 447.205,442.912 442.872,443.579 438.5,444C 316.168,448.66 193.834,448.66 71.5,444C 31.4025,436.899 8.5692,413.066 3,372.5C 1.88291,353.005 0.716244,333.672 -0.5,314.5C -0.5,275.167 -0.5,235.833 -0.5,196.5C 0.79442,177.332 1.96109,157.999 3,138.5C 7.53312,103.987 26.0331,80.8202 58.5,69C 62.1141,68.0551 65.7808,67.3884 69.5,67C 131.633,64.1187 193.799,62.9521 256,63.5C 317.868,62.9487 379.701,64.1154 441.5,67C 471.488,71.6498 491.988,88.1498 503,116.5C 505.454,123.314 507.12,130.314 508,137.5C 509.117,156.995 510.284,176.328 511.5,195.5 Z M 206.5,157.5 C 254.298,190.237 302.298,222.737 350.5,255C 302.667,287.5 254.833,320 207,352.5C 206.5,287.501 206.333,222.501 206.5,157.5 Z"/></g>
</svg>
