<?xml version="1.0" encoding="UTF-8"?>
<!DOCTYPE svg PUBLIC "-//W3C//DTD SVG 1.1//EN" "http://www.w3.org/Graphics/SVG/1.1/DTD/svg11.dtd">
<svg xmlns="http://www.w3.org/2000/svg" version="1.1" width="512px" height="512px" style="shape-rendering:geometricPrecision; text-rendering:geometricPrecision; image-rendering:optimizeQuality; fill-rule:evenodd; clip-rule:evenodd" xmlns:xlink="http://www.w3.org/1999/xlink">
<g><path style="opacity:0.99" fill="#8f9cb4" d="M 239.5,32.5 C 315.358,29.1962 378.191,55.8629 428,112.5C 476.734,174.495 491.067,243.828 471,320.5C 453.087,378.539 417.92,422.705 365.5,453C 342.017,465.994 317.017,474.494 290.5,478.5C 290.5,426.167 290.5,373.833 290.5,321.5C 307.833,321.5 325.167,321.5 342.5,321.5C 345.5,300.165 348.5,278.832 351.5,257.5C 330.833,257.5 310.167,257.5 289.5,257.5C 289.333,243.163 289.5,228.829 290,214.5C 289.606,197.426 297.439,186.26 313.5,181C 327.115,179.594 340.782,179.094 354.5,179.5C 354.826,161.257 354.492,143.09 353.5,125C 335.597,122.15 317.597,120.817 299.5,121C 247.597,126.245 221.43,155.078 221,207.5C 220.5,224.163 220.333,240.83 220.5,257.5C 201.833,257.5 183.167,257.5 164.5,257.5C 164.5,278.833 164.5,300.167 164.5,321.5C 183.167,321.5 201.833,321.5 220.5,321.5C 220.5,373.833 220.5,426.167 220.5,478.5C 147.749,465.205 93.2486,426.538 57,362.5C 30.7084,310.878 24.3751,256.878 38,200.5C 63.9461,113.22 121.113,58.7199 209.5,37C 219.596,35.1582 229.596,33.6582 239.5,32.5 Z"/></g>
</svg>
