<svg width="30" height="30" viewBox="0 0 30 30" fill="none" xmlns="http://www.w3.org/2000/svg">
<path d="M7.8 1C6.52696 1 5.30606 1.42143 4.40589 2.17157C3.50571 2.92172 3 3.93913 3 5V25C3 26.0609 3.50571 27.0783 4.40589 27.8284C5.30606 28.5786 6.52696 29 7.8 29H22.2C23.473 29 24.6939 28.5786 25.5941 27.8284C26.4943 27.0783 27 26.0609 27 25V9.828C26.9992 9.03262 26.6193 8.27007 25.944 7.708L18.9528 1.878C18.6183 1.59947 18.2213 1.37857 17.7844 1.22792C17.3475 1.07727 16.8792 0.999822 16.4064 1H7.8ZM5.4 5C5.4 4.46957 5.65286 3.96086 6.10294 3.58579C6.55303 3.21071 7.16348 3 7.8 3H15V8C15 8.79565 15.3793 9.55871 16.0544 10.1213C16.7295 10.6839 17.6452 11 18.6 11H24.6V25C24.6 25.5304 24.3471 26.0391 23.8971 26.4142C23.447 26.7893 22.8365 27 22.2 27H7.8C7.16348 27 6.55303 26.7893 6.10294 26.4142C5.65286 26.0391 5.4 25.5304 5.4 25V5ZM24.1032 9H18.6C18.2817 9 17.9765 8.89464 17.7515 8.70711C17.5264 8.51957 17.4 8.26522 17.4 8V3.414L24.1032 9Z" fill="#384255"/>
</svg>
