<?xml version="1.0" encoding="UTF-8"?>
<!DOCTYPE svg PUBLIC "-//W3C//DTD SVG 1.1//EN" "http://www.w3.org/Graphics/SVG/1.1/DTD/svg11.dtd">
<svg xmlns="http://www.w3.org/2000/svg" version="1.1" width="512px" height="512px" style="shape-rendering:geometricPrecision; text-rendering:geometricPrecision; image-rendering:optimizeQuality; fill-rule:evenodd; clip-rule:evenodd" xmlns:xlink="http://www.w3.org/1999/xlink">
<g><path style="opacity:0.987" fill="#5c6472" d="M 235.5,47.5 C 315.499,43.0908 379.332,72.7575 427,136.5C 468.237,200.311 474.904,267.645 447,338.5C 412.591,411.141 355.424,452.641 275.5,463C 195.478,467.898 131.645,438.398 84,374.5C 42.7624,310.686 36.0958,243.353 64,172.5C 98.6297,99.9332 155.796,58.2665 235.5,47.5 Z M 254.5,143.5 C 284,144.487 305.167,158.154 318,184.5C 329.245,223.098 318.745,254.265 286.5,278C 255.549,293.393 228.716,287.893 206,261.5C 188.264,238.146 183.931,212.48 193,184.5C 205.434,158.702 225.934,145.035 254.5,143.5 Z M 253.5,319.5 C 292.973,319.491 328.307,331.324 359.5,355C 367.238,362.068 374.238,369.734 380.5,378C 340.929,417.304 293.262,434.637 237.5,430C 195.574,425.202 159.907,407.868 130.5,378C 151.762,350.523 179.429,332.856 213.5,325C 226.824,322.003 240.157,320.17 253.5,319.5 Z"/></g>
</svg>
