<?xml version="1.0" encoding="UTF-8"?>
<!DOCTYPE svg PUBLIC "-//W3C//DTD SVG 1.1//EN" "http://www.w3.org/Graphics/SVG/1.1/DTD/svg11.dtd">
<svg xmlns="http://www.w3.org/2000/svg" version="1.1" width="512px" height="512px" style="shape-rendering:geometricPrecision; text-rendering:geometricPrecision; image-rendering:optimizeQuality; fill-rule:evenodd; clip-rule:evenodd" xmlns:xlink="http://www.w3.org/1999/xlink">
<g><path style="opacity:0.628" fill="#5c6472" d="M 271.5,47.5 C 342.631,43.1524 398.131,70.1524 438,128.5C 463.651,171.697 470.317,217.697 458,266.5C 436.107,335.728 389.607,377.561 318.5,392C 266.766,399.413 220.599,386.913 180,354.5C 144.5,390 109,425.5 73.5,461C 55.1328,467.294 46.6328,460.794 48,441.5C 48.6667,440.167 49.3333,438.833 50,437.5C 85.5,402 121,366.5 156.5,331C 119.048,283.076 108.215,229.576 124,170.5C 142.002,115.83 177.835,77.9967 231.5,57C 244.711,52.7294 258.045,49.5627 271.5,47.5 Z M 289.5,79.5 C 348.25,82.2713 391.084,109.605 418,161.5C 440.504,216.64 433.171,267.307 396,313.5C 352.297,358.712 300.464,371.545 240.5,352C 183.316,326.948 152.983,283.114 149.5,220.5C 152.576,161.137 180.576,118.303 233.5,92C 251.52,84.325 270.186,80.1583 289.5,79.5 Z"/></g>
</svg>
