<?xml version="1.0" encoding="UTF-8"?>
<!DOCTYPE svg PUBLIC "-//W3C//DTD SVG 1.1//EN" "http://www.w3.org/Graphics/SVG/1.1/DTD/svg11.dtd">
<svg xmlns="http://www.w3.org/2000/svg" version="1.1" width="512px" height="512px" style="shape-rendering:geometricPrecision; text-rendering:geometricPrecision; image-rendering:optimizeQuality; fill-rule:evenodd; clip-rule:evenodd" xmlns:xlink="http://www.w3.org/1999/xlink">
<g><path style="opacity:0.99" fill="#f89807" d="M 249.5,31.5 C 259.36,29.3496 266.527,32.6829 271,41.5C 287.068,91.2032 303.234,140.87 319.5,190.5C 374.83,191.333 430.164,191.833 485.5,192C 494.482,196.473 497.649,203.64 495,213.5C 493.939,216.562 492.106,219.062 489.5,221C 446.42,250.624 403.253,280.124 360,309.5C 375.7,358.933 392.033,408.266 409,457.5C 410.367,476.794 401.867,483.294 383.5,477C 341.01,445.922 298.343,415.088 255.5,384.5C 212.657,415.088 169.99,445.922 127.5,477C 116.633,482.56 108.133,480.06 102,469.5C 101.333,465.5 101.333,461.5 102,457.5C 118.967,408.266 135.3,358.933 151,309.5C 107.747,280.124 64.5799,250.624 21.5,221C 14.9307,214.055 13.7641,206.222 18,197.5C 19.9384,194.894 22.4384,193.061 25.5,192C 80.8363,191.833 136.17,191.333 191.5,190.5C 208.037,139.39 224.87,88.3898 242,37.5C 244.114,34.8792 246.614,32.8792 249.5,31.5 Z"/></g>
</svg>
