<?xml version="1.0" encoding="UTF-8"?>
<!DOCTYPE svg PUBLIC "-//W3C//DTD SVG 1.1//EN" "http://www.w3.org/Graphics/SVG/1.1/DTD/svg11.dtd">
<svg xmlns="http://www.w3.org/2000/svg" version="1.1" width="512px" height="512px" style="shape-rendering:geometricPrecision; text-rendering:geometricPrecision; image-rendering:optimizeQuality; fill-rule:evenodd; clip-rule:evenodd" xmlns:xlink="http://www.w3.org/1999/xlink">
<g><path style="opacity:0.998" fill="#848fa3" d="M 176.5,15.5 C 191.837,15.3334 207.17,15.5001 222.5,16C 230.667,18.8333 236.167,24.3333 239,32.5C 239.667,181.167 239.667,329.833 239,478.5C 236.167,486.667 230.667,492.167 222.5,495C 207.167,495.667 191.833,495.667 176.5,495C 168.333,492.167 162.833,486.667 160,478.5C 159.333,329.833 159.333,181.167 160,32.5C 163.019,24.3156 168.519,18.649 176.5,15.5 Z"/></g>
<g><path style="opacity:0.998" fill="#848fa3" d="M 400.5,95.5 C 415.837,95.3334 431.17,95.5001 446.5,96C 454.667,98.8333 460.167,104.333 463,112.5C 463.667,234.5 463.667,356.5 463,478.5C 460.167,486.667 454.667,492.167 446.5,495C 431.167,495.667 415.833,495.667 400.5,495C 392.333,492.167 386.833,486.667 384,478.5C 383.333,356.5 383.333,234.5 384,112.5C 387.019,104.316 392.519,98.649 400.5,95.5 Z"/></g>
<g><path style="opacity:0.997" fill="#848fa3" d="M 288.5,207.5 C 303.837,207.333 319.17,207.5 334.5,208C 342.667,210.833 348.167,216.333 351,224.5C 351.667,309.167 351.667,393.833 351,478.5C 348.167,486.667 342.667,492.167 334.5,495C 319.167,495.667 303.833,495.667 288.5,495C 280.333,492.167 274.833,486.667 272,478.5C 271.333,393.833 271.333,309.167 272,224.5C 275.019,216.316 280.519,210.649 288.5,207.5 Z"/></g>
<g><path style="opacity:0.995" fill="#848fa3" d="M 64.5,303.5 C 79.837,303.333 95.1703,303.5 110.5,304C 118.667,306.833 124.167,312.333 127,320.5C 127.667,373.167 127.667,425.833 127,478.5C 124.167,486.667 118.667,492.167 110.5,495C 95.1667,495.667 79.8333,495.667 64.5,495C 56.3333,492.167 50.8333,486.667 48,478.5C 47.3333,425.833 47.3333,373.167 48,320.5C 51.0191,312.316 56.5191,306.649 64.5,303.5 Z"/></g>
</svg>
