<?xml version="1.0" encoding="UTF-8"?>
<!DOCTYPE svg PUBLIC "-//W3C//DTD SVG 1.1//EN" "http://www.w3.org/Graphics/SVG/1.1/DTD/svg11.dtd">
<svg xmlns="http://www.w3.org/2000/svg" version="1.1" width="512px" height="512px" style="shape-rendering:geometricPrecision; text-rendering:geometricPrecision; image-rendering:optimizeQuality; fill-rule:evenodd; clip-rule:evenodd" xmlns:xlink="http://www.w3.org/1999/xlink">
<g><path style="opacity:0.992" fill="#fefffe" d="M 265.5,31.5 C 305.871,30.0384 325.371,49.3717 324,89.5C 318.47,108.562 311.803,127.229 304,145.5C 299.658,157.701 296.491,170.201 294.5,183C 295.541,188.412 296.874,193.746 298.5,199C 294.633,208.241 291.466,217.741 289,227.5C 288.333,235.167 288.333,242.833 289,250.5C 291.256,257.261 293.09,264.094 294.5,271C 293.285,278.314 291.452,285.48 289,292.5C 288.333,299.5 288.333,306.5 289,313.5C 291.133,320.764 292.966,328.097 294.5,335.5C 292.781,342.497 290.948,349.497 289,356.5C 288.333,363.833 288.333,371.167 289,378.5C 290.95,385.508 292.783,392.508 294.5,399.5C 293.181,406.626 291.347,413.626 289,420.5C 286.331,437.494 289.665,453.16 299,467.5C 300.724,472.731 299.224,476.565 294.5,479C 252.087,482.709 211.42,476.042 172.5,459C 166.5,455.667 160.5,452.333 154.5,449C 131.87,447.732 109.203,447.065 86.5,447C 49.7422,439.575 26.5756,417.742 17,381.5C 15.3845,357.875 15.0512,334.209 16,310.5C 24.1667,271.667 47.6667,248.167 86.5,240C 99.5,239.667 112.5,239.333 125.5,239C 130.57,238.549 134.736,236.382 138,232.5C 152.572,204.35 167.906,176.684 184,149.5C 204.171,118.488 224.838,87.8213 246,57.5C 250,50.8333 254,44.1667 258,37.5C 260.114,34.8792 262.614,32.8792 265.5,31.5 Z"/></g>
<g><path style="opacity:0.978" fill="#fefffe" d="M 423.5,193.5 C 448.974,190.802 462.308,202.302 463.5,228C 463.668,241.498 457.668,251.165 445.5,257C 406.495,257.52 367.495,257.186 328.5,256C 306.655,252.501 298.821,240.001 305,218.5C 311.128,206.677 320.961,200.844 334.5,201C 364.347,198.821 394.014,196.321 423.5,193.5 Z"/></g>
<g><path style="opacity:0.979" fill="#fefffe" d="M 448.5,269.5 C 484.484,263.651 499.651,278.651 494,314.5C 491.322,323.178 485.822,329.345 477.5,333C 425.127,332.193 372.794,330.193 320.5,327C 311.64,324.807 306.14,319.307 304,310.5C 303.333,304.5 303.333,298.5 304,292.5C 306.491,283.497 312.325,277.997 321.5,276C 363.982,273.745 406.315,271.579 448.5,269.5 Z"/></g>
<g><path style="opacity:0.978" fill="#fefffe" d="M 440.5,343.5 C 460.304,339.141 473.137,346.474 479,365.5C 481.459,378.204 479.125,389.871 472,400.5C 466.937,406.563 460.437,409.229 452.5,408.5C 410.501,406.318 368.501,404.151 326.5,402C 314.723,401.542 307.223,395.708 304,384.5C 303.11,377.086 303.443,369.753 305,362.5C 307.584,355.618 312.417,351.118 319.5,349C 359.941,346.61 400.274,344.777 440.5,343.5 Z"/></g>
<g><path style="opacity:0.977" fill="#fefffe" d="M 391.5,415.5 C 403.505,415.333 415.505,415.5 427.5,416C 437.9,420.07 444.4,427.57 447,438.5C 450.007,453.48 445.84,465.98 434.5,476C 427.195,479.356 419.529,480.356 411.5,479C 382.153,476.132 352.819,473.132 323.5,470C 309.581,466.41 302.914,457.41 303.5,443C 304.054,425.846 313.054,417.513 330.5,418C 351.006,417.474 371.339,416.641 391.5,415.5 Z"/></g>
</svg>
